<svg version="1.1" xmlns="http://www.w3.org/2000/svg" width="220" height="135" viewBox="0 0 220 135" style="shape-rendering:crispEdges;">
    <g fill="#ed2e38">
        <rect y="0"  x="20"  height="10" width="10" />
        <rect y="0"  x="70"  height="10" width="10" />

        <rect y="10" x="30"  height="10" width="10" />
        <rect y="10" x="60"  height="10" width="10" />

        <rect y="20" x="20"  height="10" width="60" />

        <rect y="30" x="0"   height="20" width="10" />
        <rect y="30" x="20"  height="20" width="70" />
        <rect y="30" x="100" height="20" width="10" />

        <rect y="50" x="0" height="20" width="110" />

        <rect y="70" x="10" height="10" width="10" />
        <rect y="70" x="30" height="10" width="10" />
        <rect y="70" x="70" height="10" width="10" />
        <rect y="70" x="90" height="10" width="10" />

        <rect y="80" x="0" height="10" width="10" />
        <rect y="80" x="40" height="10" width="10" />
        <rect y="80" x="60" height="10" width="10" />
        <rect y="80" x="100" height="10" width="10" />
    </g>
    <g fill="#0060ac">
        <rect y="40" x="30"  height="10" width="10"/>
        <rect y="40" x="70"  height="10" width="10"/>
    </g>
</svg>