<svg version="1.1" xmlns="http://www.w3.org/2000/svg" width="260" height="105" viewBox="0 0 260 105" style="shape-rendering:crispEdges;">
    <g fill="#ed2e38">
        <rect y="0"  x="40"  height="10" width="50" />

        <rect y="10" x="30"  height="10" width="70" />

        <rect y="20" x="20"  height="10" width="90" />

        <rect y="30" x="30"  height="10" width="70" />

        <rect y="40" x="20"  height="10" width="90" />

        <rect y="50" x="10"  height="10" width="20" />
        <rect y="50" x="40"  height="10" width="10" />
        <rect y="50" x="80"  height="10" width="10" />
        <rect y="50" x="100" height="10" width="20" />

        <rect y="60" x="0"   height="10" width="20" />
        <rect y="60" x="50"  height="10" width="10" />
        <rect y="60" x="70"  height="10" width="10" />
        <rect y="60" x="110" height="10" width="20" />
    </g>
    <g fill="white">
        <rect y="20" x="40"  height="10" width="20"/>
        <rect y="20" x="70"  height="10" width="20"/>
    </g>
    <g fill="#0060ac">
        <rect y="20" x="40"  height="10" width="10"/>
        <rect y="20" x="70"  height="10" width="10"/>
    </g>
</svg>